<?xml version="1.0" encoding="UTF-8"?>
<svg width="352px" height="80px" viewBox="0 0 352 80" version="1.1" xmlns="http://www.w3.org/2000/svg" xmlns:xlink="http://www.w3.org/1999/xlink">
    <!-- Generator: Sketch 53.2 (72643) - https://sketchapp.com -->
    <title>Group 24</title>
    <desc>Created with Sketch.</desc>
    <g id="Page-1" stroke="none" stroke-width="1" fill="none" fill-rule="evenodd">
        <g id="Syllable_031919" transform="translate(-120.000000, -356.000000)" fill="#313E50">
            <g id="Group-24" transform="translate(296.000000, 396.000000) rotate(-90.000000) translate(-296.000000, -396.000000) translate(256.000000, 220.000000)">
                <path d="M45.705,16.7448 C45.0948,18.8374 44.7461,20.7553 44.0479,23.1093 C41.7819,30.6074 38.1195,34.2691 29.6625,34.2691 C20.1591,34.2691 15.1897,26.4223 15.1897,17.2683 C15.1897,4.3647 22.7745,0.3536 30.8835,0.6156 L30.8835,11.7754 C27.5699,11.7754 24.6064,12.9084 24.6064,17.443 C24.6064,20.4939 26.0881,22.9353 28.7903,22.9353 C31.493,22.9353 32.714,21.5402 33.5863,18.314 C34.2838,15.7859 34.7186,13.7807 35.6788,11.252 C38.0328,4.8008 42.3914,1.5746 49.4534,1.5746 C57.3003,1.5746 63.0546,8.2004 63.0546,17.5297 C63.0546,27.3818 58.0852,33.2228 48.3204,33.3102 L48.3204,22.5865 C51.8948,22.4991 53.9874,20.8427 53.9874,17.2683 C53.9874,14.4782 52.4183,12.647 50.0643,12.647 C47.797,12.647 46.4893,13.9547 45.705,16.7448" id="Fill-3"></path>
                <polygon id="Fill-5" points="0.5423 47.8413 17.6305 54.1184 62.4445 36.3327 62.4445 49.2363 33.499 60.1347 62.4445 70.6837 62.4445 82.7158 0.5423 59.1758"></polygon>
                <path d="M39.1226,100.3971 C34.6398,100.3971 31.0066,96.7632 31.0066,92.2817 C31.0066,87.7989 34.6398,84.1657 39.1226,84.1657 C43.6048,84.1657 47.238,87.7989 47.238,92.2817 C47.238,96.7632 43.6048,100.3971 39.1226,100.3971" id="Fill-6"></path>
                <polygon id="Fill-7" points="15.8004 120.296 15.8004 108.6127 79.5337 108.6127 79.5337 120.296"></polygon>
                <polygon id="Fill-8" points="15.8004 141.0181 15.8004 129.3354 79.5337 129.3354 79.5337 141.0181"></polygon>
                <path d="M25.3903,173.3205 C25.3903,181.1667 31.2313,186.1368 39.1662,186.1368 C47.013,186.1368 52.854,180.8179 52.854,173.3205 C52.854,165.3869 46.925,160.4168 39.1662,160.4168 C31.2313,160.4168 25.3903,165.6483 25.3903,173.3205 L25.3903,173.3205 Z M20.4202,186.5729 C18.1536,184.7417 15.0153,180.1211 15.0153,172.6229 C15.0153,158.4116 24.6928,148.7342 39.1662,148.7342 C52.9414,148.7342 63.2296,158.3242 63.2296,172.6229 C63.2296,178.3772 61.137,183.6961 58.0849,186.3982 L62.4448,186.3982 L62.4448,197.4713 L15.8002,197.4713 L15.8002,186.5729 L20.4202,186.5729 Z" id="Fill-9"></path>
                <path d="M39.1226,221.9747 C34.6398,221.9747 31.0066,218.3408 31.0066,213.8586 C31.0066,209.3765 34.6398,205.7426 39.1226,205.7426 C43.6048,205.7426 47.238,209.3765 47.238,213.8586 C47.238,218.3408 43.6048,221.9747 39.1226,221.9747" id="Fill-10"></path>
                <path d="M25.4775,254.5589 C25.4775,262.4925 31.2318,267.3752 39.166,267.3752 C47.0996,267.3752 52.8546,262.2304 52.8546,254.4715 C52.8546,246.538 47.0996,241.6552 39.166,241.6552 C31.1444,241.6552 25.4775,246.7994 25.4775,254.5589 L25.4775,254.5589 Z M15.8001,241.3932 L15.8001,230.3207 L79.5334,230.3207 L79.5334,242.004 L57.824,242.004 C60.5267,244.5321 63.2295,249.5888 63.2295,255.9533 C63.2295,269.9906 53.5521,279.0578 39.166,279.0578 C25.3902,279.0578 15.0152,269.5545 15.0152,255.1684 C15.0152,249.1534 17.5433,244.096 20.246,241.3932 L15.8001,241.3932 Z" id="Fill-11"></path>
                <polygon id="Fill-12" points="15.8004 298.1815 15.8004 286.4989 79.5337 286.4989 79.5337 298.1815"></polygon>
                <path d="M44.1354,318.1779 L44.1354,339.2766 C49.3662,338.7544 53.3773,334.8306 53.3773,328.4655 C53.3773,322.5371 49.4536,318.7881 44.1354,318.1779 L44.1354,318.1779 Z M35.3302,317.9171 C29.1391,318.5267 25.3901,322.8859 25.3901,329.5124 C25.3901,335.4408 28.529,338.8417 32.3654,341.2824 L27.1346,349.9142 C21.2923,347.1234 15.0151,340.8463 15.0151,329.5124 C15.0151,315.3878 24.1704,305.6237 38.9913,305.6237 C52.9412,305.6237 63.2294,315.039 63.2294,328.5529 C63.2294,342.5908 54.0749,351.3966 40.1249,351.3966 C38.9913,351.3966 37.3348,351.3966 35.3302,351.2213 L35.3302,317.9171 Z" id="Fill-13"></path>
                <path d="M45.705,16.7448 C45.0948,18.8374 44.7461,20.7553 44.0479,23.1093 C41.7819,30.6074 38.1195,34.2691 29.6625,34.2691 C20.1591,34.2691 15.1897,26.4223 15.1897,17.2683 C15.1897,4.3647 22.7745,0.3536 30.8835,0.6156 L30.8835,11.7754 C27.5699,11.7754 24.6064,12.9084 24.6064,17.443 C24.6064,20.4939 26.0881,22.9353 28.7903,22.9353 C31.493,22.9353 32.714,21.5402 33.5863,18.314 C34.2838,15.7859 34.7186,13.7807 35.6788,11.252 C38.0328,4.8008 42.3914,1.5746 49.4534,1.5746 C57.3003,1.5746 63.0546,8.2004 63.0546,17.5297 C63.0546,27.3818 58.0852,33.2228 48.3204,33.3102 L48.3204,22.5865 C51.8948,22.4991 53.9874,20.8427 53.9874,17.2683 C53.9874,14.4782 52.4183,12.647 50.0643,12.647 C47.797,12.647 46.4893,13.9547 45.705,16.7448" id="Fill-14"></path>
                <polygon id="Fill-15" points="0.5423 47.8413 17.6305 54.1184 62.4445 36.3327 62.4445 49.2363 33.499 60.1347 62.4445 70.6837 62.4445 82.7158 0.5423 59.1758"></polygon>
                <path d="M39.1226,100.3971 C34.6398,100.3971 31.0066,96.7632 31.0066,92.2817 C31.0066,87.7989 34.6398,84.1657 39.1226,84.1657 C43.6048,84.1657 47.238,87.7989 47.238,92.2817 C47.238,96.7632 43.6048,100.3971 39.1226,100.3971" id="Fill-16"></path>
                <polygon id="Fill-17" points="15.8004 120.296 15.8004 108.6127 79.5337 108.6127 79.5337 120.296"></polygon>
                <polygon id="Fill-18" points="15.8004 141.0181 15.8004 129.3354 79.5337 129.3354 79.5337 141.0181"></polygon>
                <path d="M25.3903,173.3205 C25.3903,181.1667 31.2313,186.1368 39.1662,186.1368 C47.013,186.1368 52.854,180.8179 52.854,173.3205 C52.854,165.3869 46.925,160.4168 39.1662,160.4168 C31.2313,160.4168 25.3903,165.6483 25.3903,173.3205 L25.3903,173.3205 Z M20.4202,186.5729 C18.1536,184.7417 15.0153,180.1211 15.0153,172.6229 C15.0153,158.4116 24.6928,148.7342 39.1662,148.7342 C52.9414,148.7342 63.2296,158.3242 63.2296,172.6229 C63.2296,178.3772 61.137,183.6961 58.0849,186.3982 L62.4448,186.3982 L62.4448,197.4713 L15.8002,197.4713 L15.8002,186.5729 L20.4202,186.5729 Z" id="Fill-19"></path>
                <path d="M39.1226,221.9747 C34.6398,221.9747 31.0066,218.3408 31.0066,213.8586 C31.0066,209.3765 34.6398,205.7426 39.1226,205.7426 C43.6048,205.7426 47.238,209.3765 47.238,213.8586 C47.238,218.3408 43.6048,221.9747 39.1226,221.9747" id="Fill-20"></path>
                <path d="M25.4775,254.5589 C25.4775,262.4925 31.2318,267.3752 39.166,267.3752 C47.0996,267.3752 52.8546,262.2304 52.8546,254.4715 C52.8546,246.538 47.0996,241.6552 39.166,241.6552 C31.1444,241.6552 25.4775,246.7994 25.4775,254.5589 L25.4775,254.5589 Z M15.8001,241.3932 L15.8001,230.3207 L79.5334,230.3207 L79.5334,242.004 L57.824,242.004 C60.5267,244.5321 63.2295,249.5888 63.2295,255.9533 C63.2295,269.9906 53.5521,279.0578 39.166,279.0578 C25.3902,279.0578 15.0152,269.5545 15.0152,255.1684 C15.0152,249.1534 17.5433,244.096 20.246,241.3932 L15.8001,241.3932 Z" id="Fill-21"></path>
                <polygon id="Fill-22" points="15.8004 298.1815 15.8004 286.4989 79.5337 286.4989 79.5337 298.1815"></polygon>
                <path d="M44.1354,318.1779 L44.1354,339.2766 C49.3662,338.7544 53.3773,334.8306 53.3773,328.4655 C53.3773,322.5371 49.4536,318.7881 44.1354,318.1779 L44.1354,318.1779 Z M35.3302,317.9171 C29.1391,318.5267 25.3901,322.8859 25.3901,329.5124 C25.3901,335.4408 28.529,338.8417 32.3654,341.2824 L27.1346,349.9142 C21.2923,347.1234 15.0151,340.8463 15.0151,329.5124 C15.0151,315.3878 24.1704,305.6237 38.9913,305.6237 C52.9412,305.6237 63.2294,315.039 63.2294,328.5529 C63.2294,342.5908 54.0749,351.3966 40.1249,351.3966 C38.9913,351.3966 37.3348,351.3966 35.3302,351.2213 L35.3302,317.9171 Z" id="Fill-23"></path>
            </g>
        </g>
    </g>
</svg>