<?xml version="1.0" encoding="UTF-8"?>
<svg width="1736px" height="432px" viewBox="0 0 1736 432" version="1.1" xmlns="http://www.w3.org/2000/svg" xmlns:xlink="http://www.w3.org/1999/xlink">
    <!-- Generator: Sketch 52.6 (67491) - http://www.bohemiancoding.com/sketch -->
    <title>syllable-logo@3x</title>
    <desc>Created with Sketch.</desc>
    <g id="Page-1" stroke="none" stroke-width="1" fill="none" fill-rule="evenodd">
        <g id="syllable-logo" fill="#313E50" fill-rule="nonzero">
            <path d="M532,180.5 L532,5.68434189e-14 L562.5,5.68434189e-14 L593,5.68434189e-14 L593,180.5 L593,361 L562.5,361 L532,361 L532,180.5 Z M658,180.5 L658,5.68434189e-14 L689,5.68434189e-14 L720,5.68434189e-14 L720,180.5 L720,361 L689,361 L658,361 L658,180.5 Z M1061,180.5 L1061,0 L1095,0 L1129,0 L1129,78.2 L1129.1,156.5 L1133.3,148.3 C1150.8,115.1 1187.8,97.3 1229.8,102 C1288,108.5 1325.8,153.9 1329.9,222.3 C1333.6,284.8 1310.2,334.9 1267.5,356 C1236.7,371.2 1198,371.5 1168.3,356.8 C1152.4,348.9 1136.8,333.8 1129.7,319.3 C1128,315.8 1126.3,313 1125.9,313 C1125.6,313 1122.9,322.1 1120.1,333.2 C1117.2,344.4 1114.4,355.2 1113.9,357.2 L1112.9,361 L1087,361 L1061,361 L1061,180.5 Z M1213.3,156.9 C1203.2,154.4 1187.3,154.4 1177.2,157 C1155.2,162.8 1139.3,178.8 1132.1,202.5 C1128.8,213.2 1127.4,232.2 1128.8,247.5 C1130.8,269.1 1137.3,284.5 1149.4,296.5 C1168.6,315.4 1202.7,319.7 1228,306.4 C1251.5,294.1 1264.1,262.2 1261,223.5 C1259.1,200.3 1252.6,184.4 1240.1,172 C1231.6,163.6 1225.2,160 1213.3,156.9 Z M1373,180.5 L1373,-5.68434189e-14 L1403.5,-5.68434189e-14 L1434,-5.68434189e-14 L1434,180.5 L1434,361 L1403.5,361 L1373,361 L1373,180.5 Z M871.5,98.6 C878.5,97.9 897.5,98.1 907.1,99.1 C935.1,101.9 954.8,109.7 970.2,123.9 C986.1,138.6 994.9,157.1 998,182 C998.6,187.2 999,223.3 999,275.7 L999,361 L972.1,361 L945.2,361 L944.1,353.2 C943.5,349 942.4,341.3 941.8,336.2 C941.1,331.2 940.3,327 940,327 C939.7,327 937.9,329.4 936,332.3 C927.8,344.4 914.3,355.5 901.1,361 C874.8,371.8 834.1,369.7 806.5,356 C784.8,345.2 770.8,328.4 764.8,306.1 C762.1,295.9 761.9,276.4 764.4,267 C767.6,255.3 771.7,248.2 781,238.9 C788.7,231.2 790.9,229.6 801.1,224.7 C820.5,215.3 837.7,211.8 865.5,211.8 C887.1,211.7 900.6,213.5 934.3,220.7 L937,221.2 L937,203.2 C937,176.6 934.1,164.7 925.4,155.1 C916,144.6 895.1,140.3 873.5,144.5 C854.4,148.1 841.8,159.6 840.3,174.6 L839.7,180 L805.8,180 L771.8,180 L772.5,172.2 C775.9,135.6 795.9,114.3 836.5,104 C842.6,102.5 852.2,100.7 858,100.1 C863.8,99.5 869.9,98.8 871.5,98.6 Z M909.6,254.4 C896.2,252.2 869.3,251.7 859.8,253.5 C844.8,256.4 835.1,262.7 831,272.2 C822.8,291.3 832.9,311.5 853.8,318.1 C862.5,320.7 879,321.7 888.8,320 C905.3,317.2 921.3,305.5 929.3,290.3 C933.3,282.6 937,270 937,263.9 L937,260.2 L927.8,258.1 C922.8,256.9 914.5,255.3 909.6,254.4 Z M87.5,100.6 C99.7,98.7 125.4,98.7 139.3,100.5 C181.7,106.1 211.4,126.6 222.9,158.5 C225.8,166.7 229.8,183.6 228.9,184.4 C228.1,185.2 176.6,187 176,186.3 C175.7,185.9 174.8,183.3 174.2,180.6 C167.9,155.6 146.3,141.9 113,141.7 C94.8,141.6 83.5,145.4 75.3,154.3 C65.7,164.7 65.9,182 75.7,191.2 C81.8,197 87.9,198.7 124.9,205 C144.2,208.3 161.9,211.4 164.3,212 C199,220.9 220.3,237.1 228.5,260.7 C235.3,280.2 233.3,306.1 223.7,322.8 C211.6,344 187.8,358.6 155.5,364.6 C147.4,366.1 140.7,366.5 121,366.5 C99.4,366.5 95.1,366.2 85.2,364.2 C53.6,357.8 30.1,343.9 15.9,323.4 C8.8,313 3,297.7 1.2,284.1 L0.3,278 L7.9,278 C12.1,278 24.7,277.5 36,277 C47.2,276.5 56.6,276.3 56.8,276.5 C57,276.6 57.8,279.4 58.7,282.7 C63.9,302.9 80.1,317.8 102,322.7 C112.4,325 134.2,325 143,322.6 C156.2,319.1 164.5,313.6 168.6,305.7 C169.6,304 170.5,299.3 170.8,295.4 C171.8,280.1 165.3,271.6 148.6,266.5 C144.1,265.1 127.2,261.7 111,259 C94.8,256.2 76.8,252.8 71,251.4 C27.5,240.7 7,218.1 7,181 C7,150.5 22.6,126.2 51.5,111.7 C60.7,107.1 76.3,102.3 87.5,100.6 Z M1599.5,100.1 C1642.3,97.5 1677.6,109.8 1702.5,136.1 C1725.7,160.6 1735.9,191.6 1736,237.2 L1736,248 L1640,248 L1543.9,248 L1544.6,253.2 C1550,295.3 1582.3,320.2 1625,315.1 C1649.2,312.1 1664.2,301.8 1674.2,281.2 C1677.4,274.7 1679.8,271 1680.8,271 C1684,271 1733.5,276.3 1733.9,276.7 C1734.7,277.3 1730,292 1726.5,300.2 C1719.1,317.3 1703.8,336.1 1689.1,345.9 C1675,355.5 1656,362.7 1636,366.1 C1625.2,368 1595.8,367.7 1584.3,365.6 C1553.6,360 1530.1,348.2 1511.5,328.9 C1492.9,309.6 1482.8,288.8 1478.3,260.5 C1476,245.7 1477,217.2 1480.3,203 C1486.8,175.6 1499.1,153.6 1518.2,135.4 C1540.4,114.2 1568.3,102.1 1599.5,100.1 Z M1629.3,152.9 C1620.6,149.8 1602,149.3 1592.2,152 C1568.5,158.4 1551.7,177.7 1546.7,204.2 L1545.2,212 L1606.6,212 L1668,212 L1668,207.7 C1667.9,194.4 1660.8,177.2 1651.2,166.9 C1644.8,160.1 1638.9,156.3 1629.3,152.9 Z M242.3,107.7 C241.8,106.1 243.8,106 274.3,106 L306.8,106 L339.5,188.1 C369,262 372.4,270.1 374.3,269.8 C376,269.5 381.3,256.9 408.5,188 L440.8,106.5 L470.9,106.2 C487.4,106.1 501,106.3 501,106.7 C501,107.2 470.4,180.4 433.1,269.5 L365.4,431.5 L315.7,431.8 L266,432 L266,408 L266,384 L295.2,383.8 L324.4,383.5 L332.3,365 C339,349 340,346.1 339.2,343.5 C338.7,341.8 316.8,288.5 290.5,225 C264.3,161.5 242.5,108.7 242.3,107.7 Z" id="Combined-Shape"></path>
        </g>
    </g>
</svg>